<svg width="17" height="17" viewBox="0 0 17 17" fill="none" xmlns="http://www.w3.org/2000/svg">
<path d="M5.31455 12.0573C6.24767 12.0573 7.00411 11.3009 7.00411 10.3678C7.00411 9.43466 6.24767 8.67822 5.31455 8.67822C4.38144 8.67822 3.625 9.43466 3.625 10.3678C3.625 11.3009 4.38144 12.0573 5.31455 12.0573Z" stroke="#116C63" stroke-width="1.35164" stroke-linecap="round" stroke-linejoin="round"/>
<path d="M12.0729 12.0573C13.006 12.0573 13.7624 11.3009 13.7624 10.3678C13.7624 9.43466 13.006 8.67822 12.0729 8.67822C11.1397 8.67822 10.3833 9.43466 10.3833 10.3678C10.3833 11.3009 11.1397 12.0573 12.0729 12.0573Z" stroke="#116C63" stroke-width="1.35164" stroke-linecap="round" stroke-linejoin="round"/>
<path d="M8.69395 5.29903C9.62706 5.29903 10.3835 4.54259 10.3835 3.60948C10.3835 2.67636 9.62706 1.91992 8.69395 1.91992C7.76083 1.91992 7.00439 2.67636 7.00439 3.60948C7.00439 4.54259 7.76083 5.29903 8.69395 5.29903Z" stroke="#116C63" stroke-width="1.35164" stroke-linecap="round" stroke-linejoin="round"/>
<path d="M8.69377 15.4365C8.69377 13.5703 7.18087 12.0574 5.31466 12.0574C3.44842 12.0574 1.93555 13.5703 1.93555 15.4365" stroke="#116C63" stroke-width="1.35164" stroke-linecap="round" stroke-linejoin="round"/>
<path d="M15.4521 15.4365C15.4521 13.5703 13.9392 12.0574 12.073 12.0574C10.2067 12.0574 8.69385 13.5703 8.69385 15.4365" stroke="#116C63" stroke-width="1.35164" stroke-linecap="round" stroke-linejoin="round"/>
<path d="M12.0732 8.67818C12.0732 6.81197 10.5603 5.29907 8.69405 5.29907C6.82784 5.29907 5.31494 6.81197 5.31494 8.67818" stroke="#116C63" stroke-width="1.35164" stroke-linecap="round" stroke-linejoin="round"/>
</svg>
